<svg id="Layer_1" data-name="Layer 1" xmlns="http://www.w3.org/2000/svg" viewBox="0 0 391.24 190.96"><defs><style>.cls-1{fill:#1f1f1f;}.cls-2{fill:#f26c4f;}.cls-3{fill:#fff;}</style></defs><rect class="cls-1" x="4.15" y="2.28" width="382.47" height="184.74" rx="17.38"/><circle class="cls-2" cx="344.11" cy="126.05" r="11.58"/><path class="cls-3" d="M79.81,59.32a11,11,0,0,0-6.08-1.54q-9.86,0-9.85,12.86v9H77.83v6.12H63.88v49.9h-7V85.74H47.09V79.62h9.79V70.21A25.33,25.33,0,0,1,58,62.57a16.44,16.44,0,0,1,3.14-5.85A13.79,13.79,0,0,1,66.32,53a18.79,18.79,0,0,1,7.25-1.31,15.51,15.51,0,0,1,6.24,1Z"/><path class="cls-3" d="M119,135.64v-9.95h-.22a20.52,20.52,0,0,1-7.47,8.31,19.76,19.76,0,0,1-10.69,3,22,22,0,0,1-7.31-1.15,15.6,15.6,0,0,1-5.52-3.26,14.21,14.21,0,0,1-3.51-5.06A16.78,16.78,0,0,1,83,121q0-7.61,4.71-12.12T102,103l17-2.46q0-16.14-12.53-16.14-9.8,0-18.16,7.16V83.88a24.46,24.46,0,0,1,4-2.27,38.69,38.69,0,0,1,4.68-1.75A40,40,0,0,1,102,78.71a32.85,32.85,0,0,1,5.06-.41q9.36,0,14.15,5.26T126,99.2v36.44Zm-14.45-27.19a44,44,0,0,0-6.45,1.37A13.41,13.41,0,0,0,93.65,112a8.3,8.3,0,0,0-2.57,3.45,13.63,13.63,0,0,0-.83,5.06,10.71,10.71,0,0,0,.8,4.16,9.23,9.23,0,0,0,2.3,3.31A10.39,10.39,0,0,0,97,130.17a14.61,14.61,0,0,0,4.9.77,16.27,16.27,0,0,0,6.84-1.42,16.47,16.47,0,0,0,5.39-3.94,18.27,18.27,0,0,0,3.55-6A21.87,21.87,0,0,0,119,112v-5.52Z"/><path class="cls-3" d="M180.64,135.64V102.71q0-9.42-3.39-13.87t-10.56-4.46a15.65,15.65,0,0,0-6.45,1.36,15.83,15.83,0,0,0-5.37,3.94A19.49,19.49,0,0,0,151.21,96a23.69,23.69,0,0,0-1.37,8.34v31.35h-7V52.7h7V89.3h.22q6.56-11,18.82-11,9.36,0,14.06,5.75t4.71,17v34.63Z"/><path class="cls-3" d="M236.78,135.64v-9.95h-.22a20.52,20.52,0,0,1-7.47,8.31,19.76,19.76,0,0,1-10.69,3,22,22,0,0,1-7.31-1.15,15.6,15.6,0,0,1-5.52-3.26,14.21,14.21,0,0,1-3.51-5.06,16.78,16.78,0,0,1-1.23-6.51q0-7.61,4.71-12.12T219.76,103l17-2.46q0-16.14-12.53-16.14-9.8,0-18.16,7.16V83.88a24.46,24.46,0,0,1,4-2.27,38.69,38.69,0,0,1,4.68-1.75,40,40,0,0,1,5.06-1.15,32.85,32.85,0,0,1,5.06-.41q9.36,0,14.15,5.26t4.78,15.64v36.44Zm-14.45-27.19a44.31,44.31,0,0,0-6.45,1.37,13.41,13.41,0,0,0-4.43,2.21,8.3,8.3,0,0,0-2.57,3.45,13.63,13.63,0,0,0-.83,5.06,10.71,10.71,0,0,0,.8,4.16,9.23,9.23,0,0,0,2.3,3.31,10.39,10.39,0,0,0,3.66,2.16,14.61,14.61,0,0,0,4.9.77,16.27,16.27,0,0,0,6.84-1.42,16.47,16.47,0,0,0,5.39-3.94,18.27,18.27,0,0,0,3.55-6,21.87,21.87,0,0,0,1.29-7.61v-5.52Z"/><path class="cls-3" d="M299.92,135.64V125.8h-.22a19.86,19.86,0,0,1-8,8.23A23.41,23.41,0,0,1,280,137a22.94,22.94,0,0,1-9.54-1.94,20.51,20.51,0,0,1-7.36-5.61,26.11,26.11,0,0,1-4.73-8.87,38.13,38.13,0,0,1-1.67-11.76,39.78,39.78,0,0,1,1.83-12.39,28.73,28.73,0,0,1,5.2-9.63,23.33,23.33,0,0,1,8.1-6.24,24.46,24.46,0,0,1,10.53-2.22q12.09,0,17.34,9.69h.22V52.7h7v82.94Zm0-33.81A18.4,18.4,0,0,0,298.66,95a16.87,16.87,0,0,0-3.5-5.52,16.51,16.51,0,0,0-5.39-3.73,17.19,17.19,0,0,0-6.92-1.36A17.73,17.73,0,0,0,275.19,86a16.64,16.64,0,0,0-6,4.73,23,23,0,0,0-3.89,7.52,33.9,33.9,0,0,0-1.39,10.07,33.2,33.2,0,0,0,1.26,9.52,20.66,20.66,0,0,0,3.58,7.11,15.55,15.55,0,0,0,5.56,4.44,16.5,16.5,0,0,0,7.16,1.53,18.62,18.62,0,0,0,7.69-1.53,16.86,16.86,0,0,0,5.8-4.22,18.63,18.63,0,0,0,3.66-6.29,22.77,22.77,0,0,0,1.29-7.71Z"/></svg>