<svg xmlns="http://www.w3.org/2000/svg" xmlns:xlink="http://www.w3.org/1999/xlink" viewBox="0 0 461.83 383.45"><defs><style>.cls-1{fill:#fff;}.cls-2{fill:#b3f2ef;}.cls-3{fill:#3598db;}.cls-4{fill:#266682;}.cls-5{fill:url(#linear-gradient);}.cls-6{fill:#aedbf4;}</style><linearGradient id="linear-gradient" x1="282.4" y1="184.1" x2="362.97" y2="184.1" gradientUnits="userSpaceOnUse"><stop offset="0" stop-color="#f7df28"/><stop offset="1" stop-color="#f16233"/></linearGradient></defs><g id="Layer_2" data-name="Layer 2"><g id="Layer_1-2" data-name="Layer 1"><rect class="cls-1" width="461.83" height="383.45"/><path class="cls-2" d="M234.24,0H459.08V1.25c-17.2,18.27-25.73,33.89-25.73,33.89s-2.13,3.43-6.14,8.57c-.66.85-1.37,1.75-2.14,2.69-13,16-40.66,43.49-77.32,43.88-21.86.24-42.94-12.22-62-29.46-1.36-1.21-2.69-2.46-4-3.73-.82-.78-1.64-1.56-2.44-2.36C262,37.71,246.6,17.3,234.24,0Z"/><path class="cls-2" d="M0,51.47V0H171.54C141.06,28.83,126,73,126,73s-1.42,3.68-4.11,9.22c-6.09,12.57-18.66,34.68-35.76,44.75a35.48,35.48,0,0,1-17.5,5.29c-16.32.3-32-16.38-45.85-38.21C14.44,80.85,6.75,65.79,0,51.47Z"/><path class="cls-3" d="M0,25.59V0H461.83V25.3a133.81,133.81,0,0,1-33.59,21.1,128.38,128.38,0,0,1-27.61,8.48c-1.5.29-3,.55-4.57.79-2.45.38-5,.7-7.53.94a149.58,149.58,0,0,1-38-1.41,135.13,135.13,0,0,0-30.81-1.5,122.13,122.13,0,0,0-21,3.27l-.47.12c-3.81.94-7.48,2.06-11,3.31q-5.6,2-10.75,4.36c-41.38,19.09-61.76,55.57-61.76,55.57s-25.6,40.39-64.81,40.8c-21.56.23-42.15-15.5-59.56-34.18-.53-.57-1-1.13-1.57-1.71-13-14.28-24.24-30-32.6-41.6C50.79,76.11,21.22,34.53,0,25.59Z"/><path class="cls-3" d="M461.83,370.63v12.82H0V370.77a185.63,185.63,0,0,1,33.59-10.59,232.42,232.42,0,0,1,27.61-4.25c1.5-.15,3-.28,4.57-.4,2.45-.19,5-.35,7.53-.47a297,297,0,0,1,38,.71,268.91,268.91,0,0,0,30.81.75c7.39-.26,14.37-.82,21-1.64l.47-.06q5.72-.7,11-1.66,5.6-1,10.75-2.19c41.38-9.58,61.76-27.89,61.76-27.89s25.6-20.27,64.81-20.47c21.56-.12,42.15,7.77,59.56,17.15l1.57.86c13.05,7.16,24.24,15.07,32.6,20.87C411,345.27,440.61,366.14,461.83,370.63Z"/><path class="cls-4" d="M66.51,187.25l-7.65,27.08H55.14l-5.57-19.79a12.87,12.87,0,0,1-.43-2.75h-.08a12.94,12.94,0,0,1-.49,2.71L43,214.33H39.28l-7.92-27.08h3.49L40.61,208a13.44,13.44,0,0,1,.45,2.72h.09a16.64,16.64,0,0,1,.59-2.72l6-20.77h3l5.74,20.92A15.36,15.36,0,0,1,57,210.7H57a15.08,15.08,0,0,1,.51-2.6l5.53-20.85Z"/><path class="cls-4" d="M84.73,205.44H71.08a7.21,7.21,0,0,0,1.74,5,6,6,0,0,0,4.57,1.76,9.49,9.49,0,0,0,6-2.16v2.91a11.19,11.19,0,0,1-6.74,1.85,8.19,8.19,0,0,1-6.44-2.63q-2.34-2.64-2.34-7.41a10.57,10.57,0,0,1,2.56-7.36,8.2,8.2,0,0,1,6.35-2.84A7.25,7.25,0,0,1,82.65,197a10.17,10.17,0,0,1,2.08,6.81Zm-3.17-2.63a6.32,6.32,0,0,0-1.3-4.17,4.39,4.39,0,0,0-3.54-1.49A5,5,0,0,0,73,198.71a7.21,7.21,0,0,0-1.88,4.1Z"/><path class="cls-4" d="M103.25,214.33h-3.1v-3h-.07a6.49,6.49,0,0,1-6,3.47,6.36,6.36,0,0,1-4.52-1.53A5.29,5.29,0,0,1,88,209.19q0-5.41,6.38-6.3l5.79-.81c0-3.29-1.32-4.93-4-4.93a9.47,9.47,0,0,0-6.3,2.38v-3.18a12,12,0,0,1,6.57-1.81q6.81,0,6.81,7.21Zm-3.1-9.78-4.66.64a7.58,7.58,0,0,0-3.25,1.07A3.07,3.07,0,0,0,91.15,209a3,3,0,0,0,1,2.31,3.89,3.89,0,0,0,2.69.9,5,5,0,0,0,3.8-1.62,5.76,5.76,0,0,0,1.5-4.09Z"/><path class="cls-4" d="M118.05,214.14a6,6,0,0,1-2.89.6c-3.38,0-5.07-1.88-5.07-5.66V197.64h-3.33V195h3.33v-4.72l3.09-1V195h4.87v2.64h-4.87v10.89a4.54,4.54,0,0,0,.66,2.78,2.65,2.65,0,0,0,2.19.83,3.29,3.29,0,0,0,2-.64Z"/><path class="cls-4" d="M138.24,214.33h-3.1V203.19q0-6-4.49-6a4.92,4.92,0,0,0-3.82,1.74,6.54,6.54,0,0,0-1.55,4.49v11h-3.09V185.71h3.09V198.2h.08a7,7,0,0,1,6.34-3.66q6.54,0,6.54,7.88Z"/><path class="cls-4" d="M159.61,205.44H146a7.25,7.25,0,0,0,1.73,5,6,6,0,0,0,4.57,1.76,9.5,9.5,0,0,0,6-2.16v2.91a11.19,11.19,0,0,1-6.74,1.85,8.19,8.19,0,0,1-6.44-2.63q-2.34-2.64-2.34-7.41a10.57,10.57,0,0,1,2.56-7.36,8.2,8.2,0,0,1,6.35-2.84,7.25,7.25,0,0,1,5.87,2.46,10.17,10.17,0,0,1,2.08,6.81Zm-3.17-2.63a6.32,6.32,0,0,0-1.3-4.17,4.39,4.39,0,0,0-3.54-1.49,5,5,0,0,0-3.72,1.56,7.09,7.09,0,0,0-1.88,4.1Z"/><path class="cls-4" d="M174.37,198.13a3.75,3.75,0,0,0-2.34-.62,3.93,3.93,0,0,0-3.31,1.87,8.59,8.59,0,0,0-1.33,5.09v9.86h-3.1V195h3.1v4h.07a6.78,6.78,0,0,1,2-3.18,4.62,4.62,0,0,1,3-1.14,5,5,0,0,1,1.85.26Z"/><path class="cls-4" d="M193.92,197.26h-5v15.62h-2.05V197.26h-5v-1.85h12.13Z"/><path class="cls-4" d="M203.85,207.14H195a4.65,4.65,0,0,0,1.12,3.22,3.84,3.84,0,0,0,3,1.13A6.11,6.11,0,0,0,203,210.1V212a7.19,7.19,0,0,1-4.35,1.19,5.23,5.23,0,0,1-4.15-1.7,6.92,6.92,0,0,1-1.51-4.78,6.85,6.85,0,0,1,1.65-4.75,5.29,5.29,0,0,1,4.1-1.83,4.7,4.7,0,0,1,3.79,1.59,6.6,6.6,0,0,1,1.34,4.39Zm-2-1.69a4.12,4.12,0,0,0-.83-2.69,2.83,2.83,0,0,0-2.29-1,3.25,3.25,0,0,0-2.4,1,4.64,4.64,0,0,0-1.22,2.65Z"/><path class="cls-4" d="M208.87,212.88h-2V194.41h2Z"/><path class="cls-4" d="M214.91,212.88h-2V194.41h2Z"/><path class="cls-4" d="M229,207.14h-8.81a4.65,4.65,0,0,0,1.12,3.22,3.84,3.84,0,0,0,2.95,1.13,6.09,6.09,0,0,0,3.87-1.39V212a7.19,7.19,0,0,1-4.35,1.19,5.23,5.23,0,0,1-4.15-1.7,6.92,6.92,0,0,1-1.51-4.78,6.85,6.85,0,0,1,1.65-4.75,5.29,5.29,0,0,1,4.1-1.83,4.7,4.7,0,0,1,3.79,1.59,6.6,6.6,0,0,1,1.34,4.39Zm-2.05-1.69a4.12,4.12,0,0,0-.83-2.69,2.83,2.83,0,0,0-2.29-1,3.25,3.25,0,0,0-2.4,1,4.64,4.64,0,0,0-1.22,2.65Z"/><path class="cls-4" d="M238.52,202.43A2.44,2.44,0,0,0,237,202a2.55,2.55,0,0,0-2.14,1.21,5.59,5.59,0,0,0-.86,3.29v6.36h-2V200.4h2V203h.05a4.37,4.37,0,0,1,1.3-2.05,3,3,0,0,1,2-.74,3.4,3.4,0,0,1,1.2.17Z"/><path class="cls-3" d="M43.26,235.54l-1.37,3.87h-.8l4-11.07h.76l4,11.07H49l-1.39-3.87Zm4.14-.66-1.35-3.7a20.12,20.12,0,0,1-.58-2h0a18.56,18.56,0,0,1-.57,1.92l-1.36,3.73Z"/><path class="cls-3" d="M54.8,238.38a3.47,3.47,0,0,0,1.77.54c1.24,0,1.83-.68,1.83-1.5s-.52-1.33-1.65-1.78c-1.29-.5-2-1.2-2-2.16a2.2,2.2,0,0,1,2.42-2.13,3.13,3.13,0,0,1,1.75.5l-.31.64a2.57,2.57,0,0,0-1.56-.48,1.39,1.39,0,0,0-1.54,1.36c0,.83.56,1.18,1.64,1.62,1.27.5,2,1.14,2,2.33,0,1.35-1,2.26-2.66,2.26a3.88,3.88,0,0,1-2-.54Z"/><path class="cls-3" d="M62.27,229.28a.63.63,0,1,1-1.26,0,.67.67,0,0,1,.63-.69A.64.64,0,0,1,62.27,229.28Zm-1,10.13v-7.88H62v7.88Z"/><path class="cls-3" d="M64.68,233.41c0-.72,0-1.26-.06-1.88h.72l.06,1.39h0A2.76,2.76,0,0,1,68,231.35a2.39,2.39,0,0,1,2.26,1.72h0a3.18,3.18,0,0,1,.81-1.06,2.66,2.66,0,0,1,1.88-.66c.77,0,2.57.43,2.57,3.42v4.64h-.78v-4.57c0-1.77-.68-2.82-2.05-2.82a2.29,2.29,0,0,0-2.07,1.56,2.36,2.36,0,0,0-.14.78v5h-.78v-4.93c0-1.42-.68-2.46-2-2.46a2.45,2.45,0,0,0-2.19,1.78,2.51,2.51,0,0,0-.12.75v4.86h-.78Z"/><path class="cls-3" d="M78.13,234.05c0-1,0-1.77-.07-2.52h.75l0,1.49h0a3.11,3.11,0,0,1,2.9-1.67c2,0,3.39,1.67,3.39,4,0,2.82-1.67,4.25-3.58,4.25a3,3,0,0,1-2.67-1.46h0v4.53h-.78Zm.78,2.26a2.7,2.7,0,0,0,.07.63,2.65,2.65,0,0,0,2.59,2c1.81,0,2.84-1.47,2.84-3.57,0-1.77-1-3.37-2.78-3.37A2.74,2.74,0,0,0,79,234.1a3.12,3.12,0,0,0-.11.67Z"/><path class="cls-3" d="M87.19,227.75H88v11.66h-.78Z"/><path class="cls-3" d="M90.79,235.4c0,2.51,1.38,3.51,3,3.51a4.5,4.5,0,0,0,2.19-.45l.2.62a5.35,5.35,0,0,1-2.48.5,3.61,3.61,0,0,1-3.68-4c0-2.63,1.51-4.28,3.55-4.28,2.58,0,3.07,2.42,3.07,3.56a2.28,2.28,0,0,1,0,.49Zm5-.63c0-1.1-.44-2.77-2.36-2.77a2.81,2.81,0,0,0-2.62,2.77Z"/><path class="cls-3" d="M106.53,239.41l-.11-1.13h0a3,3,0,0,1-2.51,1.31,2.16,2.16,0,0,1-2.32-2.17c0-1.81,1.6-2.91,4.81-2.88v-.21c0-.78-.15-2.33-2-2.32a3.41,3.41,0,0,0-2,.59l-.24-.57a4.19,4.19,0,0,1,2.31-.68c2.27,0,2.71,1.71,2.71,3.11v3.08a12.87,12.87,0,0,0,.11,1.87Zm-.17-4.21c-1.72,0-4,.21-4,2.1a1.5,1.5,0,0,0,1.56,1.64,2.38,2.38,0,0,0,2.34-1.58,1.71,1.71,0,0,0,.08-.47Z"/><path class="cls-3" d="M109.69,233.41c0-.72,0-1.26-.06-1.88h.72l.06,1.42h0a3,3,0,0,1,2.72-1.6c.75,0,2.75.38,2.75,3.34v4.72h-.78v-4.65c0-1.44-.56-2.74-2.19-2.74a2.55,2.55,0,0,0-2.47,2.51v4.88h-.78Z"/><path class="cls-3" d="M124.77,227.75v9.83c0,.58,0,1.28.07,1.83h-.71l0-1.49h0a3,3,0,0,1-2.8,1.67c-1.95,0-3.4-1.62-3.4-4,0-2.62,1.61-4.26,3.55-4.26a2.77,2.77,0,0,1,2.57,1.39h0v-5Zm-.78,6.9a3.51,3.51,0,0,0-.07-.72,2.54,2.54,0,0,0-2.49-1.93c-1.71,0-2.8,1.49-2.8,3.53,0,1.77.88,3.41,2.76,3.41a2.61,2.61,0,0,0,2.52-2.06,2.25,2.25,0,0,0,.08-.66Z"/><path class="cls-3" d="M130.77,231.53l1.85,4.89c.32.77.56,1.44.77,2.11h0c.22-.65.5-1.35.8-2.11l1.87-4.89h.82l-3.2,7.88H133l-3.09-7.88Z"/><path class="cls-3" d="M139.47,229.28a.65.65,0,0,1-.66.68.64.64,0,0,1-.61-.68.68.68,0,0,1,.64-.69A.65.65,0,0,1,139.47,229.28Zm-1,10.13v-7.88h.78v7.88Z"/><path class="cls-3" d="M141.55,238.38a3.5,3.5,0,0,0,1.78.54c1.24,0,1.83-.68,1.83-1.5s-.53-1.33-1.66-1.78c-1.29-.5-2-1.2-2-2.16a2.2,2.2,0,0,1,2.42-2.13,3.13,3.13,0,0,1,1.75.5l-.31.64a2.57,2.57,0,0,0-1.56-.48,1.38,1.38,0,0,0-1.53,1.36c0,.83.55,1.18,1.63,1.62,1.27.5,2,1.14,2,2.33,0,1.35-1.05,2.26-2.66,2.26a3.81,3.81,0,0,1-2-.54Z"/><path class="cls-3" d="M154.07,237.49c0,.7,0,1.32.06,1.92h-.72l-.06-1.4h0a3,3,0,0,1-2.7,1.58c-1,0-2.68-.5-2.68-3.47v-4.59h.78V236c0,1.72.53,2.95,2.09,2.95a2.59,2.59,0,0,0,2.32-1.6,2.87,2.87,0,0,0,.16-.87v-4.91h.78Z"/><path class="cls-3" d="M161,239.41l-.12-1.13h0a3,3,0,0,1-2.51,1.31,2.15,2.15,0,0,1-2.32-2.17c0-1.81,1.6-2.91,4.8-2.88v-.21c0-.78-.15-2.33-2-2.32a3.41,3.41,0,0,0-2,.59l-.25-.57a4.22,4.22,0,0,1,2.31-.68c2.28,0,2.71,1.71,2.71,3.11v3.08a12.87,12.87,0,0,0,.12,1.87Zm-.18-4.21c-1.71,0-4,.21-4,2.1a1.5,1.5,0,0,0,1.57,1.64,2.37,2.37,0,0,0,2.33-1.58,1.4,1.4,0,0,0,.08-.47Z"/><path class="cls-3" d="M164.18,227.75H165v11.66h-.78Z"/><path class="cls-3" d="M167.66,227.75h.78v11.66h-.78Z"/><path class="cls-3" d="M170.82,231.53l2.06,5.15c.22.56.43,1.2.58,1.7h0c.16-.49.37-1.1.6-1.75l1.93-5.1h.83l-2.36,5.88c-1,2.45-1.62,3.91-2.65,4.8a4.33,4.33,0,0,1-1.38.82l-.25-.65a4,4,0,0,0,1.37-.88,6,6,0,0,0,1.32-2,.69.69,0,0,0,0-.68L170,231.53Z"/><path class="cls-3" d="M181.94,234.05c0-1,0-1.77-.07-2.52h.75l.06,1.49h0a3.13,3.13,0,0,1,2.91-1.67c2,0,3.39,1.67,3.39,4,0,2.82-1.68,4.25-3.59,4.25a3,3,0,0,1-2.67-1.46h0v4.53h-.78Zm.78,2.26a2.7,2.7,0,0,0,.07.63,2.66,2.66,0,0,0,2.59,2c1.81,0,2.84-1.47,2.84-3.57,0-1.77-1-3.37-2.77-3.37a2.74,2.74,0,0,0-2.62,2.1,3.12,3.12,0,0,0-.11.67Z"/><path class="cls-3" d="M191,227.75h.78v11.66H191Z"/><path class="cls-3" d="M194.61,235.4c0,2.51,1.37,3.51,3,3.51a4.56,4.56,0,0,0,2.19-.45l.2.62a5.4,5.4,0,0,1-2.49.5c-2.27,0-3.67-1.65-3.67-4,0-2.63,1.5-4.28,3.54-4.28,2.58,0,3.07,2.42,3.07,3.56a2.28,2.28,0,0,1,0,.49Zm5-.63c0-1.1-.44-2.77-2.35-2.77a2.81,2.81,0,0,0-2.63,2.77Z"/><path class="cls-3" d="M206.75,239.41l-.11-1.13h0a3,3,0,0,1-2.51,1.31,2.15,2.15,0,0,1-2.32-2.17c0-1.81,1.6-2.91,4.8-2.88v-.21c0-.78-.15-2.33-2-2.32a3.41,3.41,0,0,0-2,.59l-.25-.57a4.22,4.22,0,0,1,2.32-.68c2.27,0,2.7,1.71,2.7,3.11v3.08a12.87,12.87,0,0,0,.12,1.87Zm-.18-4.21c-1.71,0-4,.21-4,2.1a1.5,1.5,0,0,0,1.57,1.64,2.37,2.37,0,0,0,2.33-1.58,1.4,1.4,0,0,0,.08-.47Z"/><path class="cls-3" d="M209.58,238.38a3.5,3.5,0,0,0,1.78.54c1.24,0,1.83-.68,1.83-1.5s-.52-1.33-1.66-1.78c-1.29-.5-2-1.2-2-2.16a2.21,2.21,0,0,1,2.43-2.13,3.16,3.16,0,0,1,1.75.5l-.32.64a2.57,2.57,0,0,0-1.56-.48,1.38,1.38,0,0,0-1.53,1.36c0,.83.56,1.18,1.63,1.62,1.27.5,2,1.14,2,2.33,0,1.35-1.05,2.26-2.66,2.26a3.81,3.81,0,0,1-2-.54Z"/><path class="cls-3" d="M217.06,229.28a.65.65,0,0,1-.66.68.64.64,0,0,1-.61-.68.68.68,0,0,1,.64-.69A.65.65,0,0,1,217.06,229.28Zm-1,10.13v-7.88h.78v7.88Z"/><path class="cls-3" d="M219.47,233.41c0-.72,0-1.26-.07-1.88h.73l.05,1.42h0a3,3,0,0,1,2.71-1.6c.75,0,2.75.38,2.75,3.34v4.72h-.78v-4.65c0-1.44-.55-2.74-2.18-2.74a2.53,2.53,0,0,0-2.37,1.81,3,3,0,0,0-.1.7v4.88h-.78Z"/><path class="cls-3" d="M234.61,231.53c0,.59-.06,1.21-.06,2v4.69c0,2-.42,3-1.08,3.65a3.9,3.9,0,0,1-2.67.93,4.45,4.45,0,0,1-2.5-.68l.28-.62a4.26,4.26,0,0,0,2.34.65c1.65,0,2.85-.85,2.85-3.19v-1.11h0a3,3,0,0,1-2.75,1.52c-2,0-3.37-1.73-3.37-3.87,0-2.75,1.8-4.19,3.55-4.19a2.77,2.77,0,0,1,2.64,1.51h0l0-1.33Zm-.84,3a2.59,2.59,0,0,0-.1-.76,2.55,2.55,0,0,0-2.45-1.8c-1.67,0-2.82,1.37-2.82,3.45,0,1.78.94,3.31,2.8,3.31a2.57,2.57,0,0,0,2.43-1.78,2.64,2.64,0,0,0,.14-.84Z"/><path class="cls-3" d="M99.71,251.24l1.33,4.48c.27.92.49,1.71.67,2.47h0c.19-.73.47-1.56.79-2.46l1.58-4.49h.74l1.5,4.44c.32,1,.57,1.77.77,2.51h0c.17-.74.41-1.53.71-2.48l1.42-4.47h.79l-2.63,7.88h-.68l-1.48-4.39a24.67,24.67,0,0,1-.82-2.69h0c-.24.93-.53,1.8-.86,2.72L102,259.12h-.69l-2.42-7.88Z"/><path class="cls-3" d="M111.72,255.1c0,2.52,1.37,3.52,3,3.52a4.53,4.53,0,0,0,2.19-.45l.2.61a5.17,5.17,0,0,1-2.48.51c-2.27,0-3.68-1.65-3.68-4,0-2.63,1.51-4.28,3.54-4.28,2.59,0,3.07,2.43,3.07,3.57a3.25,3.25,0,0,1,0,.48Zm5-.62c0-1.1-.44-2.78-2.36-2.78a2.83,2.83,0,0,0-2.63,2.78Z"/><path class="cls-3" d="M123.87,259.12l-.12-1.13h0a3,3,0,0,1-2.51,1.31,2.16,2.16,0,0,1-2.32-2.17c0-1.82,1.6-2.91,4.81-2.88V254c0-.78-.15-2.34-2-2.32a3.44,3.44,0,0,0-2,.58l-.25-.56a4.23,4.23,0,0,1,2.31-.69c2.27,0,2.71,1.71,2.71,3.12v3.07a13,13,0,0,0,.11,1.88Zm-.18-4.21c-1.72,0-4,.2-4,2.1a1.5,1.5,0,0,0,1.57,1.64,2.37,2.37,0,0,0,2.33-1.58,1.45,1.45,0,0,0,.08-.47Z"/><path class="cls-3" d="M128.07,249v2.29h2.25v.63h-2.25V257c0,1,.32,1.63,1.16,1.63a2.77,2.77,0,0,0,.9-.12l.09.6a2.73,2.73,0,0,1-1.09.19,1.65,1.65,0,0,1-1.35-.56,2.85,2.85,0,0,1-.49-1.88v-5H126v-.63h1.32v-2Z"/><path class="cls-3" d="M132.06,247.46h.78v5.18h0a2.83,2.83,0,0,1,1.07-1.13,3,3,0,0,1,1.59-.46c.75,0,2.74.38,2.74,3.31v4.76h-.78v-4.67c0-1.42-.56-2.71-2.17-2.71a2.59,2.59,0,0,0-2.38,1.78,2.3,2.3,0,0,0-.11.78v4.82h-.78Z"/><path class="cls-3" d="M141,255.1c0,2.52,1.37,3.52,3,3.52a4.5,4.5,0,0,0,2.19-.45l.21.61a5.26,5.26,0,0,1-2.49.51c-2.27,0-3.68-1.65-3.68-4,0-2.63,1.51-4.28,3.55-4.28,2.58,0,3.07,2.43,3.07,3.57a2.18,2.18,0,0,1,0,.48Zm5-.62c0-1.1-.44-2.78-2.36-2.78a2.81,2.81,0,0,0-2.62,2.78Z"/><path class="cls-3" d="M148.83,253.6c0-.79,0-1.6-.07-2.36h.72l0,1.6h0a2.45,2.45,0,0,1,2.24-1.79,1.65,1.65,0,0,1,.32,0v.75a1.5,1.5,0,0,0-.38,0c-1.08,0-1.85.94-2.07,2.21a4.47,4.47,0,0,0-.06.75v4.35h-.78Z"/><path class="cls-3" d="M161.57,259.12l-.12-1.13h0a3,3,0,0,1-2.52,1.31,2.15,2.15,0,0,1-2.31-2.17c0-1.82,1.6-2.91,4.8-2.88V254c0-.78-.15-2.34-2-2.32a3.48,3.48,0,0,0-2,.58l-.25-.56a4.23,4.23,0,0,1,2.31-.69c2.28,0,2.71,1.71,2.71,3.12v3.07a13,13,0,0,0,.12,1.88Zm-.18-4.21c-1.71,0-4,.2-4,2.1a1.5,1.5,0,0,0,1.57,1.64,2.37,2.37,0,0,0,2.33-1.58,1.45,1.45,0,0,0,.08-.47Z"/><path class="cls-3" d="M164.72,253.75c0-1,0-1.77-.06-2.51h.74l.06,1.49h0a3.13,3.13,0,0,1,2.91-1.68c2,0,3.39,1.68,3.39,4,0,2.82-1.68,4.26-3.58,4.26a3,3,0,0,1-2.67-1.46h0v4.53h-.78Zm.78,2.26a3.2,3.2,0,0,0,.07.63,2.66,2.66,0,0,0,2.59,2c1.81,0,2.84-1.47,2.84-3.57,0-1.78-1-3.38-2.77-3.38a2.74,2.74,0,0,0-2.61,2.1,2.7,2.7,0,0,0-.12.68Z"/><path class="cls-3" d="M173.79,253.75c0-1,0-1.77-.07-2.51h.75l.06,1.49h0a3.12,3.12,0,0,1,2.9-1.68c2,0,3.39,1.68,3.39,4,0,2.82-1.67,4.26-3.58,4.26a3,3,0,0,1-2.67-1.46h0v4.53h-.78Zm.78,2.26a2.59,2.59,0,0,0,.07.63,2.66,2.66,0,0,0,2.59,2c1.81,0,2.84-1.47,2.84-3.57,0-1.78-1-3.38-2.78-3.38a2.75,2.75,0,0,0-2.61,2.1,3.21,3.21,0,0,0-.11.68Z"/><circle class="cls-5" cx="322.68" cy="184.1" r="40.28"/><path class="cls-6" d="M259.87,219.47c2.35-14.3,29.49-24.65,45.4-17.2,10.22,4.78,11,14.65,19.26,15.13,7.42.44,10.43-7.23,22-16.51,6.2-5,26-20.86,40.59-15.82,12.47,4.33,10.11,20.26,26.83,26.83,6.13,2.41,10.29,1.78,14.44,6.19,4.5,4.78,6.69,13,4.13,19.26-4.59,11.23-23.25,13-34.39,11.7-16.41-1.9-16.64-10.39-31.65-13.76-18.87-4.24-23.74,8-57.09,11-26.87,2.4-36.26-4.44-39.21-6.88C268.86,238.32,258.24,229.33,259.87,219.47Z"/></g></g></svg>